<svg width="34" height="34" viewBox="0 0 34 34" fill="none" xmlns="http://www.w3.org/2000/svg">
<path d="M25.3337 27.3372C22.9235 28.8653 20.0652 29.7503 17.0003 29.7503C9.36134 29.7503 3.00622 24.2539 1.67383 17.0003C2.29246 13.6324 3.99387 10.6433 6.40384 8.40735L1.97419 3.97772L3.97767 1.97424L32.0263 30.0228L30.0228 32.0263L25.3337 27.3372ZM8.4086 10.4121C6.52604 12.1269 5.15339 14.4036 4.56544 17.0003C5.86515 22.7405 10.9997 26.917 17.0003 26.917C19.2661 26.917 21.4085 26.3214 23.2676 25.2711L20.3942 22.3977C19.4114 23.0169 18.2476 23.3753 17.0003 23.3753C13.4794 23.3753 10.6252 20.521 10.6252 17.0003C10.6252 15.7528 10.9835 14.589 11.6028 13.6063L8.4086 10.4121ZM18.2945 20.298L13.7025 15.7061C13.545 16.107 13.4585 16.5435 13.4585 17.0003C13.4585 18.9563 15.0443 20.542 17.0003 20.542C17.457 20.542 17.8936 20.4554 18.2945 20.298ZM29.4761 23.5061L27.4492 21.4791C28.3784 20.1547 29.0633 18.6414 29.4349 17.0003C28.1353 11.26 23.0007 7.08361 17.0003 7.08361C15.8019 7.08361 14.6381 7.25016 13.5325 7.56247L11.297 5.32693C13.0633 4.63197 14.9872 4.25027 17.0003 4.25027C24.6391 4.25027 30.9942 9.7466 32.3266 17.0003C31.8843 19.4081 30.8886 21.6223 29.4761 23.5061ZM16.6073 10.6372C16.7372 10.6293 16.8682 10.6253 17.0003 10.6253C20.521 10.6253 23.3753 13.4795 23.3753 17.0003C23.3753 17.1322 23.3712 17.2633 23.3634 17.3932L16.6073 10.6372Z" fill="#455061"/>
</svg>
