<svg width="34" height="34" viewBox="0 0 34 34" fill="none" xmlns="http://www.w3.org/2000/svg">
<g clip-path="url(#clip0_60_237)">
<path d="M17.0003 4.25C24.6391 4.25 30.9942 9.74633 32.3266 17C30.9942 24.2536 24.6391 29.75 17.0003 29.75C9.36134 29.75 3.00622 24.2536 1.67383 17C3.00622 9.74633 9.36134 4.25 17.0003 4.25ZM17.0003 26.9167C23.0007 26.9167 28.1353 22.7403 29.4349 17C28.1353 11.2597 23.0007 7.08333 17.0003 7.08333C10.9997 7.08333 5.86515 11.2597 4.56544 17C5.86515 22.7403 10.9997 26.9167 17.0003 26.9167ZM17.0003 23.375C13.4794 23.375 10.6252 20.5208 10.6252 17C10.6252 13.4792 13.4794 10.625 17.0003 10.625C20.521 10.625 23.3753 13.4792 23.3753 17C23.3753 20.5208 20.521 23.375 17.0003 23.375ZM17.0003 20.5417C18.9563 20.5417 20.5419 18.956 20.5419 17C20.5419 15.044 18.9563 13.4583 17.0003 13.4583C15.0443 13.4583 13.4585 15.044 13.4585 17C13.4585 18.956 15.0443 20.5417 17.0003 20.5417Z" fill="#455061"/>
</g>
<defs>
<clipPath id="clip0_60_237">
<rect width="34" height="34" fill="white"/>
</clipPath>
</defs>
</svg>
