<svg xmlns="http://www.w3.org/2000/svg" xmlns:xlink="http://www.w3.org/1999/xlink" version="1.1" x="0px" y="0px" viewBox="0 0 128 160" style="enable-background:new 0 0 128 128;" xml:space="preserve"><g><path d="M83,90.5h11v4c0,1.7,1.3,3,3,3s3-1.3,3-3v-4c1.7,0,3-1.3,3-3s-1.3-3-3-3v-27c0-1.4-0.9-2.6-2.3-2.9   c-1.3-0.3-2.7,0.3-3.4,1.5l-14,26C80.1,82.5,80,83,80,83.5v4C80,89.2,81.3,90.5,83,90.5z M86,84.3l8-14.9v15.1h-8V84.3z"/><path d="M64,97.5c6.1,0,11-4.9,11-11v-21c0-6.1-4.9-11-11-11s-11,4.9-11,11v21C53,92.6,57.9,97.5,64,97.5z M59,65.5   c0-2.8,2.2-5,5-5s5,2.2,5,5v21c0,2.8-2.2,5-5,5s-5-2.2-5-5V65.5z"/><path d="M28,90.5h11v4c0,1.7,1.3,3,3,3s3-1.3,3-3v-4c1.7,0,3-1.3,3-3s-1.3-3-3-3v-27c0-1.4-0.9-2.6-2.3-2.9s-2.7,0.3-3.4,1.5   l-14,26C25.1,82.5,25,83,25,83.5v4C25,89.2,26.3,90.5,28,90.5z M31,84.3l8-14.9v15.1h-8V84.3z"/><path d="M14,127h100c7.2,0,13-5.8,13-13V14c0-7.2-5.8-13-13-13H14C6.8,1,1,6.8,1,14v14v86C1,121.2,6.8,127,14,127z M7,14   c0-3.9,3.1-7,7-7h100c3.9,0,7,3.1,7,7v15H7V14z M7,35h114v79c0,3.9-3.1,7-7,7H14c-3.9,0-7-3.1-7-7V35z"/><path d="M22,15h-4c-1.7,0-3,1.3-3,3s1.3,3,3,3h4c1.7,0,3-1.3,3-3S23.7,15,22,15z"/><path d="M38,15h-4c-1.7,0-3,1.3-3,3s1.3,3,3,3h4c1.7,0,3-1.3,3-3S39.7,15,38,15z"/></g><text x="0" y="143" fill="#000000" font-size="5px" font-weight="bold" font-family="'Helvetica Neue', Helvetica, Arial-Unicode, Arial, Sans-serif"></text><text x="0" y="148" fill="#000000" font-size="5px" font-weight="bold" font-family="'Helvetica Neue', Helvetica, Arial-Unicode, Arial, Sans-serif"></text></svg>