<svg width="30" height="30" viewBox="0 0 30 30" fill="none" xmlns="http://www.w3.org/2000/svg">
<path d="M9.32812 15.7031C10.2031 16.5781 11.2656 17.0156 12.5156 17.0156C13.7656 17.0156 14.8281 16.5781 15.7031 15.7031C16.5781 14.8281 17.0156 13.7656 17.0156 12.5156C17.0156 11.2656 16.5781 10.2031 15.7031 9.32812C14.8281 8.45312 13.7656 8.01562 12.5156 8.01562C11.2656 8.01562 10.2031 8.45312 9.32812 9.32812C8.45312 10.2031 8.01562 11.2656 8.01562 12.5156C8.01562 13.7656 8.45312 14.8281 9.32812 15.7031ZM18.5156 17.0156L23.4844 21.9844L21.9844 23.4844L17.0156 18.5156V17.7188L16.7344 17.4375C15.5469 18.4688 14.1406 18.9844 12.5156 18.9844C10.7031 18.9844 9.15625 18.3594 7.875 17.1094C6.625 15.8594 6 14.3281 6 12.5156C6 10.7031 6.625 9.17188 7.875 7.92188C9.15625 6.64063 10.7031 6 12.5156 6C14.3281 6 15.8594 6.64063 17.1094 7.92188C18.3594 9.17188 18.9844 10.7031 18.9844 12.5156C18.9844 13.1719 18.8281 13.9219 18.5156 14.7656C18.2031 15.5781 17.8438 16.2344 17.4375 16.7344L17.7188 17.0156H18.5156Z" fill="#B0B0B0" fill-opacity="0.87"/>
</svg>
