<svg xmlns="http://www.w3.org/2000/svg" xmlns:xlink="http://www.w3.org/1999/xlink" version="1.1" x="0px" y="0px" viewBox="0 0 32 40" enable-background="new 0 0 32 32" xml:space="preserve"><g display="none"><rect x="-256.5" y="-12" display="inline" fill="#000000" width="415.5" height="206"/></g><g display="none"><g display="inline"><path fill="#000000" d="M16.24,10.93c1.735,0,3.354,0.664,4.559,1.869c1.234,1.234,1.898,2.893,1.868,4.671    c-0.03,1.784-0.753,3.474-2.037,4.758c-1.314,1.314-3.044,2.038-4.87,2.038c-1.735,0-3.354-0.664-4.559-1.869    c-2.553-2.553-2.477-6.783,0.169-9.429C12.685,11.653,14.414,10.93,16.24,10.93 M16.24,10.43c-1.874,0-3.769,0.731-5.223,2.185    c-2.846,2.846-2.921,7.384-0.169,10.136c1.346,1.346,3.119,2.016,4.913,2.016c1.874,0,3.769-0.731,5.223-2.185    c2.846-2.846,2.921-7.384,0.169-10.136C19.807,11.099,18.033,10.43,16.24,10.43L16.24,10.43z"/></g><line display="inline" fill="#000000" stroke="#1A1718" stroke-width="0.5" stroke-miterlimit="10" x1="12.801" y1="20.816" x2="19.199" y2="14.379"/><line display="inline" fill="#000000" stroke="#1A1718" stroke-width="0.5" stroke-miterlimit="10" x1="19.199" y1="20.816" x2="12.801" y2="14.379"/><g display="inline"><path fill="#000000" d="M29.438,7.031c1.137,0,2.062,0.925,2.062,2.062v16.949c0,1.137-0.925,2.062-2.062,2.062H2.562    c-1.137,0-2.062-0.925-2.062-2.062V9.093c0-1.137,0.925-2.062,2.062-2.062H29.438 M29.438,6.531H2.562    C1.147,6.531,0,7.678,0,9.093v16.949c0,1.415,1.147,2.562,2.562,2.562h26.875c1.415,0,2.562-1.147,2.562-2.562V9.093    C32,7.678,30.853,6.531,29.438,6.531L29.438,6.531z"/></g><path display="inline" fill="#000000" stroke="#1A1718" stroke-width="0.5" stroke-miterlimit="10" d="M0.25,10.366v-6.47h13.589   c0.839,0,1.624,0.417,2.093,1.113l1.249,1.851"/></g><g display="none"><g display="inline"><path fill="#000000" d="M16.24,11.43c1.601,0,3.095,0.612,4.206,1.723c1.138,1.138,1.749,2.668,1.722,4.309    c-0.028,1.654-0.699,3.221-1.891,4.413c-1.22,1.22-2.824,1.892-4.516,1.892c-1.601,0-3.095-0.612-4.205-1.723    c-1.138-1.138-1.749-2.668-1.722-4.309c0.028-1.654,0.699-3.221,1.891-4.413C12.944,12.101,14.548,11.43,16.24,11.43 M16.24,10.43    c-1.874,0-3.769,0.731-5.223,2.185c-2.846,2.846-2.921,7.384-0.169,10.136c1.346,1.346,3.119,2.016,4.913,2.016    c1.874,0,3.769-0.731,5.223-2.185c2.846-2.846,2.921-7.384,0.169-10.136C19.807,11.099,18.033,10.43,16.24,10.43L16.24,10.43z"/></g><line display="inline" fill="#000000" stroke="#1A1718" stroke-miterlimit="10" x1="12.801" y1="20.816" x2="19.199" y2="14.379"/><line display="inline" fill="#000000" stroke="#1A1718" stroke-miterlimit="10" x1="19.199" y1="20.816" x2="12.801" y2="14.379"/><g display="inline"><g><path fill="#000000" d="M29.438,7.531C30.299,7.531,31,8.232,31,9.093v16.949c0,0.861-0.701,1.562-1.562,1.562H2.562     C1.701,27.604,1,26.903,1,26.042V9.093c0-0.861,0.701-1.562,1.562-1.562H29.438 M29.438,6.531H2.562C1.147,6.531,0,7.678,0,9.093     v16.949c0,1.415,1.147,2.562,2.562,2.562h26.875c1.415,0,2.562-1.147,2.562-2.562V9.093C32,7.678,30.853,6.531,29.438,6.531     L29.438,6.531z"/></g><path fill="#000000" stroke="#1A1718" stroke-miterlimit="10" d="M0.5,10.366v-6.47h13.589c0.839,0,1.624,0.417,2.093,1.113    l1.249,1.851"/></g></g><g><g><path d="M16.24,10.573c-1.874,0-3.769,0.731-5.223,2.185c-2.846,2.846-2.921,7.384-0.169,10.136    c1.346,1.346,3.119,2.016,4.913,2.016c1.874,0,3.769-0.731,5.223-2.185c2.846-2.846,2.921-7.384,0.169-10.136    C19.807,11.243,18.033,10.573,16.24,10.573z M19.569,21.31c-1.031,1.031-2.384,1.599-3.809,1.599c-1.334,0-2.576-0.508-3.498-1.43    c-1.968-1.968-1.892-5.246,0.169-7.307c1.031-1.031,2.384-1.599,3.809-1.599c1.334,0,2.576,0.508,3.498,1.43    c0.944,0.944,1.452,2.218,1.429,3.585C21.144,18.981,20.577,20.303,19.569,21.31z"/><polygon points="17.897,14.413 16,16.322 14.103,14.413 12.685,15.823 14.59,17.741 12.685,19.658 14.103,21.068 16,19.159     17.897,21.068 19.315,19.658 17.41,17.741 19.315,15.823   "/><path d="M29.438,6.781H18.912l-1.4-2.081c-0.657-0.973-1.75-1.554-2.923-1.554H0v6.198v1.273v15.676    c0,1.415,1.147,2.562,2.562,2.562h26.875c1.415,0,2.562-1.147,2.562-2.562V9.343C32,7.928,30.853,6.781,29.438,6.781z     M14.589,5.146c0.508,0,0.98,0.251,1.264,0.671l0.648,0.964H2.562C2.369,6.781,2.181,6.806,2,6.847V5.146H14.589z M30,26.292    c0,0.31-0.252,0.562-0.562,0.562H2.562C2.252,26.854,2,26.602,2,26.292V10.616V9.343c0-0.31,0.252-0.562,0.562-0.562h26.875    c0.31,0,0.562,0.252,0.562,0.562V26.292z"/></g></g><g display="none"><g display="inline"><path d="M16.24,12.26c-1.425,0-2.778,0.568-3.809,1.599c-2.061,2.061-2.137,5.339-0.169,7.307c0.922,0.922,2.164,1.43,3.498,1.43    c1.425,0,2.778-0.568,3.809-1.599c1.007-1.007,1.575-2.329,1.598-3.722c0.023-1.368-0.485-2.641-1.429-3.585    C18.816,12.768,17.574,12.26,16.24,12.26z M18.942,19.13l-1.258,1.251L16,18.687l-1.684,1.694l-1.258-1.251l1.691-1.701    l-1.691-1.701l1.258-1.251L16,16.17l1.684-1.694l1.258,1.251l-1.691,1.701L18.942,19.13z"/><path d="M29.438,6.781H18.912l-1.4-2.081c-0.657-0.973-1.749-1.553-2.923-1.553H0v6.197v1.273v15.676    c0,1.415,1.147,2.562,2.562,2.562h26.875c1.415,0,2.562-1.147,2.562-2.562V9.343C32,7.928,30.853,6.781,29.438,6.781z     M20.983,22.412c-1.454,1.454-3.349,2.185-5.223,2.185c-1.793,0-3.567-0.67-4.913-2.016c-2.752-2.752-2.677-7.29,0.169-10.136    c1.454-1.454,3.349-2.185,5.223-2.185c1.793,0,3.567,0.67,4.913,2.016C23.905,15.028,23.829,19.566,20.983,22.412z"/></g></g><text x="0" y="47" fill="#000000" font-size="5px" font-weight="bold" font-family="'Helvetica Neue', Helvetica, Arial-Unicode, Arial, Sans-serif">Created by Icons By Alfredo</text><text x="0" y="52" fill="#000000" font-size="5px" font-weight="bold" font-family="'Helvetica Neue', Helvetica, Arial-Unicode, Arial, Sans-serif">from the Noun Project</text></svg>