<svg width="59" height="57" viewBox="0 0 59 57" fill="none" xmlns="http://www.w3.org/2000/svg">
               <path d="M54.7554 57H3.9111C1.75999 57 0 55.29 0 53.2V3.8C0 1.71 1.75999 0 3.9111 0H54.7554C56.9065 0 58.6665 1.71 58.6665 3.8V53.2C58.6665 55.29 56.9065 57 54.7554 57Z"
                              fill="url(#paint0_linear_33_36)" />
               <path opacity="0.2"
                              d="M54.7554 1.425C56.1243 1.425 57.1998 2.47 57.1998 3.8V53.2C57.1998 54.53 56.1243 55.575 54.7554 55.575H3.9111C2.54222 55.575 1.46666 54.53 1.46666 53.2V3.8C1.46666 2.47 2.54222 1.425 3.9111 1.425H54.7554ZM54.7554 0H3.9111C1.75999 0 0 1.71 0 3.8V53.2C0 55.29 1.75999 57 3.9111 57H54.7554C56.9065 57 58.6665 55.29 58.6665 53.2V3.8C58.6665 1.71 56.9065 0 54.7554 0Z"
                              fill="#424242" />
               <path d="M18.9688 50.1125C18.7244 50.1125 18.4799 50.1125 18.1866 50.065C16.5733 49.78 15.2533 48.6875 14.7155 47.1675L7.33329 25.555C6.55107 23.275 7.82218 20.8525 10.1688 20.0925C12.5155 19.3325 15.0088 20.5675 15.791 22.8475L20.5821 36.86L43.6087 8.54997C45.1243 6.69747 47.911 6.36497 49.8665 7.83747C51.7732 9.30997 52.1154 12.0175 50.5998 13.9175L22.4399 48.45C21.6088 49.495 20.2888 50.1125 18.9688 50.1125Z"
                              fill="url(#paint1_linear_33_36)" />
               <path opacity="0.2"
                              d="M47.1287 7.97997C47.8621 7.97997 48.5954 8.21747 49.1821 8.69247C49.8665 9.21497 50.3065 10.0225 50.4043 10.8775C50.5021 11.7325 50.2576 12.5875 49.7198 13.2525L21.5599 47.8325C20.9244 48.5925 19.9466 49.0675 18.9199 49.0675C18.7244 49.0675 18.5288 49.0675 18.3333 49.02C17.111 48.83 16.1333 47.975 15.7422 46.835L8.35996 25.2225C7.77329 23.5125 8.70218 21.7075 10.4622 21.1375C10.8044 21.0425 11.1466 20.9475 11.5377 20.9475C12.9555 20.9475 14.2266 21.85 14.7155 23.18L19.5066 37.1925C19.6533 37.5725 19.9466 37.8575 20.3866 37.905H20.5821C20.9244 37.905 21.2177 37.7625 21.4621 37.4775L44.4887 9.21497C45.1243 8.40747 46.1021 7.97997 47.1287 7.97997ZM47.1287 6.88747C45.8087 6.88747 44.5376 7.45747 43.6576 8.50247L20.5821 36.8125L15.791 22.8C15.1555 20.995 13.4444 19.855 11.5866 19.855C11.0977 19.855 10.6577 19.95 10.1688 20.0925C7.82218 20.8525 6.55107 23.275 7.33329 25.555L14.7644 47.1675C15.3022 48.6875 16.6222 49.78 18.2355 50.065C18.4799 50.1125 18.7733 50.1125 19.0177 50.1125C20.3866 50.1125 21.6577 49.495 22.4888 48.4975L50.6487 13.9175C52.1643 12.065 51.8709 9.30997 49.9154 7.83747C49.0843 7.21997 48.1065 6.88747 47.1287 6.88747Z"
                              fill="#424242" />
               <defs>
                              <linearGradient id="paint0_linear_33_36" x1="29.3333" y1="0.095" x2="29.3333" y2="57.19"
                                             gradientUnits="userSpaceOnUse">
                                             <stop stop-color="#81C784" />
                                             <stop offset="0.4141" stop-color="#6EBE71" />
                                             <stop offset="1" stop-color="#4CAF50" />
                              </linearGradient>
                              <linearGradient id="paint1_linear_33_36" x1="29.3254" y1="6.88747" x2="29.3254"
                                             y2="50.255" gradientUnits="userSpaceOnUse">
                                             <stop stop-color="white" />
                                             <stop offset="0.5111" stop-color="#EBEBEB" />
                                             <stop offset="1" stop-color="#E1E1E1" />
                              </linearGradient>
               </defs>
</svg>